#!OML:ASF F:\VICON\USERDATA\INSTALL\rory3\rory3.ASF
:FULLY-SPECIFIED
:DEGREES
26
root 0.5334458265916395 17.87932075208152 -10.02485110124564 -0.6441263178249566 -3.9200026417713216 -6.990188379350938
lfemur -27.325371986122498 -6.791995950193301 -10.840162423987167
ltibia 15.62353400365523
lfoot -11.412944628223425 4.603846890328477
ltoes -6.356860709019493
rfemur 5.527263739744209 6.593009186712563 34.19966829972809
rtibia 36.01082778350822
rfoot -16.833242627757024 -5.290812169093635
rtoes 3.4558564640649116
lowerback 9.67913650945563 1.8248208510936215 5.725779564288925
upperback -0.3515731225451737 3.309927830467011 1.8417009533684394
thorax -5.69317976700873 1.2683855482223727 -1.8115614326598577
lowerneck -15.65574368080834 -3.0139914014728486 -1.3058830800432246
upperneck 23.21529027563621 -4.105213032354145 -0.47919215878920957
head 9.6734964119909 -2.04767436030011 -0.3840192640462256
lclavicle -1.3879678108646714e-15 -1.8442001576305496e-15
lhumerus -36.8169685943449 14.54209771749505 76.68604343547779
lradius 17.142124015063665
lwrist -5.512655958397051
lhand -27.495394108413798 22.079200588550602
lfingers 7.125019999999999
lthumb -0.7345806121960552 52.125178348771755
rclavicle -1.3889725690928203e-15 -1.8451337982078715e-15
rhumerus -19.927685266856916 -12.713014807158377 -80.17691462215043
rradius 28.314985723829754
rwrist -1.8391897467008107
rhand -18.505792696115016 23.228894857661466
rfingers 7.125019999999999
rthumb 7.770276464236214 -6.652028183557323
27
root 0.5838256104169602 17.861728835816 -9.598366940508503 -0.7424395368418475 -4.024229910274964 -6.687741833184242
lfemur -26.850581170501478 -5.721578706667453 -11.561040135956828
ltibia 19.283425584756827
lfoot -10.499116678213765 2.7625745383823066
ltoes -5.497391342971584
rfemur 7.210343788097491 7.072390432539603 33.59806063454437
rtibia 41.15738786834815
rfoot -15.86885437681698 -4.024351120829855
rtoes 4.973979200934701
lowerback 9.371239741453277 1.9881301773961886 5.508612513005588
upperback -0.254847525081749 3.4002012666020307 1.6857453343369901
thorax -5.544799128375338 1.388823660977364 -1.7529237437070886
lowerneck -15.59003683486542 -3.1266212428811517 -1.3732772304614744
upperneck 23.441196209834082 -4.1897451554191605 -0.3416481817762464
head 9.74155012730883 -2.088483589888855 -0.3338223819122479
lclavicle -1.3879675986969416e-15 -1.844199960480234e-15
lhumerus -37.28228544962136 14.840314293267205 76.17157532129478
lradius 16.4217203576494
lwrist -5.626187195148127
lhand -27.18822383233553 22.009135826810567
lfingers 7.125019999999999
lthumb -0.43836866639771466 52.18451326290356
rclavicle -1.3889727956789312e-15 -1.845134008756023e-15
rhumerus -20.16408986171116 -13.050312696201697 -80.20432866657474
rradius 28.45686011473017
rwrist -1.6478881238012795
rhand -18.52346357716961 23.07401498738448
rfingers 7.125019999999999
rthumb 7.782385500503049 -6.783680564018324
28
root 0.6425572777607084 17.858778866688652 -8.55041080674148 -1.1647197142900336 -4.001942841174522 -6.149579485348614
lfemur -27.113681349932094 -3.6677470297732864 -13.401331650149853
ltibia 25.128580266192344
lfoot -8.052555931190511 0.30708570404531255
ltoes -5.097344188713827
rfemur 8.415196926562372 7.126276084022697 32.76182344159004
rtibia 47.56412013683944
rfoot -13.549563814112636 -2.6068498097021435
rtoes 5.759890686159986
lowerback 9.145538186894795 2.067221228665752 5.050425224518311
upperback -0.19914488784698828 3.4027137329789268 1.332427383432735
thorax -5.355858252447853 1.4812461588278187 -1.5199584771253722
lowerneck -15.36275347158036 -3.2107800366767796 -1.3549687768326428
upperneck 23.60483754798435 -4.322399296115216 -0.22960011255714075
head 9.81782266741527 -2.1363886467385678 -0.3318672298990476
lclavicle -1.3879668574414657e-15 -1.8441992716914574e-15
lhumerus -37.536974357502984 14.346076822458333 76.2344607378078
lradius 16.696006439303613
lwrist -4.756646323476273
lhand -26.6357836078192 22.725799481995757
lfingers 7.125019999999999
lthumb -0.10915849381950293 52.59340025833902
rclavicle -1.3889729215330652e-15 -1.8451341257020934e-15
rhumerus -21.16796495537293 -14.039975583787301 -80.1555970506338
rradius 28.581788347459835
rwrist -1.0815909912251476
rhand -18.536397457915513 22.92033936692959
rfingers 7.125019999999999
rthumb 7.601709957033984 -7.271591415094679
29
root 0.705207286785364 17.875198427308405 -8.27077090064328 -1.8911699141650624 -3.8718638728652364 -5.267221143050534
lfemur -26.059001046113643 -3.1364259999897564 -15.510196272929269
ltibia 29.805505622060792
lfoot -6.480742413380824 -3.4883190813865363
ltoes -3.075191762009313
rfemur 8.099745646161649 6.462099547070146 31.1026095171718
rtibia 54.58153461355043
rfoot -9.226809799952836 -1.0569261570690909
rtoes 5.776853614045279
lowerback 9.175414858287981 2.121724120920887 4.176414477745312
upperback -0.15301037915829843 3.289728608549045 1.084049291037713
thorax -5.236326713177006 1.5006348992071845 -1.3995273991339128
lowerneck -15.221898188774519 -3.252355939009799 -1.4412300452494091
upperneck 23.772790363090976 -4.33652653190378 -0.13033952294477089
head 9.859480796945821 -2.1418634810512467 -0.28921082982739443
lclavicle -1.3879665656082035e-15 -1.8441990005144044e-15
lhumerus -37.6313899835177 13.866569163556619 76.54326600990606
lradius 17.83742133604897
lwrist -2.770792891006152
lhand -26.68856645650991 22.580650638165224
lfingers 7.125019999999999
lthumb -0.02561469224893309 52.65687796433685
rclavicle -1.3889730839437553e-15 -1.845134276617216e-15
rhumerus -22.684121236871714 -15.11844574347737 -79.90481459222528
rradius 28.64566252409826
rwrist -0.3774110567032922
rhand -18.212130941744565 23.226469153460847
rfingers 7.125019999999999
rthumb 7.814579022624071 -7.044980465065986
